/* XPM */
static char * exit_x_xpm[] = {
"96 96 3 1",
" 	c None",
".	c #000000",
"+	c #FFFFFF",
"                                                                                                ",
"                                                                                                ",
"                                                                                                ",
"                                                                                                ",
"                                                                                                ",
"                                                                                                ",
"                                                                                                ",
"                                                                                                ",
"                                                                                                ",
"                                                                                                ",
"                                                                                                ",
"                                                                                                ",
"                                                                                                ",
"                            ................                                                    ",
"                         .........................                                              ",
"                       ......++++++++++++++...............                                      ",
"                    ......+++++++++++++++++++++++..............                                 ",
"                   .....+++++++++++++++++++++++++++++++++...........                            ",
"                  ...++++++++++.....++++++++++++++++++++++++++..........                        ",
"                  ..++++++++........+..++++..++++++++++++++++++++++.....                        ",
"                  ..++++++++....+++++...++...++++++.....+++++++++++++++..                       ",
"                  ..++++++++......++++......++++..+...........+++++++++...                      ",
"                  ..+++++++++.....+++++....+++++..++...........+++++++++..                      ",
"                  ..+++++++++..++++..++....+++++..++++++...+...+++++++++..                      ",
"                  ..+++++++++........++.....++++..++++++...+++++++++++++..                      ",
"                  ..+++++++++........++......+++..++++++..++++++++++++++...                     ",
"                  ..++++++++++++++++++..++....++..+++++...+++++++++++++++..                     ",
"                  ..+++++++++++++++++...++++...+..+++++...+++++++++++++++..                     ",
"                  ..+++++++++++++++++.+++++++..+..+++++...+++++++++++++++..                     ",
"                  ..+++++++++++++++++++++++++++++++++++..++++++++++++++++..                     ",
"                  ..+++++++++++++++++++++++++++++++++++++++++++++++++++++..                     ",
"                  ..++++++++..............................+++++++++++++++..                     ",
"                  ..++++++...................................++++++++++++..                     ",
"                  ..++++++..++++++++++++++++++++++++++++.........++++++++..                     ",
"                  ...+++++..++++++++++++++++++++++++++++++++..........+++..                     ",
"                   ..++++...++++++++++++++++++++++++++++++++++++......+++..                     ",
"                   ..++++..+++++++++++++++++++++++++++++++++++++++++..+++..                     ",
"                   ..++++..+++++++++++++++++++++++++++++++++++++++++..+++..                     ",
"                   ..++++..+++++++++++++++++++++++++++++++++++++++++..+++..                     ",
"                   ..++++..+++++++++++++++++++++++++++++++++++++++++..+++..                     ",
"                   ..+++...++++++++++++++++++++++++++++++++++++++++...+++..                     ",
"                   ..+++..+++++++++++++++++++++++++++++++++++++++++..++++..                     ",
"                   ..+++..+++++++++++++++++++++++++++++++++++++++++..++++..                     ",
"                   ...++..+++++++++++++++++++++++++++++++++++++++++..+++...                     ",
"                    ..++..+++++++++++++++++++++++++++++++++++++++++..+++..                      ",
"                    ..++..+++++++++++++++++++++++++++++++++++++++++..+++..                      ",
"                    ..++...++++++++++++++++++++++++++++++++++++++++..+++..                      ",
"                    ..+++..++++++++++++++++++++++++++++++++++++++++..+++..                      ",
"                    ..+++..++++++++++++++++++++++++++++++++++++++++..+++..                      ",
"                    ...++..++++++++++++++++++++++++++++++++++++++++..+++..                      ",
"                     ..++..++++++++++++++++++++++++++++++++++++++++..+++..                      ",
"                     ..++...+++++++++++++++++++++++++++++++++++++++..+++..                      ",
"                     ..+++..+++++++++++++++++++++++++++++++++++++++..+++..                      ",
"                     ..+++..+++++++++++++++++++++++++++++++++++++++..+++..                      ",
"                     ...++..+++++++++++++++++++++++++++++++++++++++..+++..                      ",
"                      ..++..+++++++++++++++++++++++++++++++++++++++..+++..                      ",
"                      ..++..++++++++++++++++++++++++++++++++...++++..++...                      ",
"                      ..++...++++++++++++++++++++++++++++........+...++..                       ",
"                      ..+++..+++++++++++++++++++++++++++.....+...+..+++..                       ",
"                      ...++..++++++++++++++++++++++++++...+++++......++..                       ",
"                       ..++..+++++++++++++++++++++++++...+++++++..+..++..                       ",
"                       ..++..+++++++++++++++++++++++++..++++++++..+..++..                       ",
"                       ..++...++++++++++++++++++++++++..+++++++...+..++..                       ",
"                       ..+++..++++++++++++++++++++++++....++++...++..++..                       ",
"                       ...++..+++++++++++++++++++++++++..........++..+...                       ",
"                        ..++..+++++++++++++++++++++++++++.......+++..+...                       ",
"                        ..++..+++++++++++++++++++++++++++++.+++++++..+...                       ",
"                        ..++..+++++++++++++++++++++++++++++++++++++..+...                       ",
"                        ...+...++++++++++++++++++++++++++++++++++++..+...                       ",
"                         ..++..++++++++++++++++++++++++++++++++++++..+...                       ",
"                         ..++..++++++++++++++++++++++++++++++++++++..+...                       ",
"                         ..++..++++++++++++++++++++++++++++++++++++..+...                       ",
"                         ..++..++++++++++++++++++++++++++++++++++++..+...                       ",
"                         ..++..++++++++++++++++++++++++++++++++++++..+...                       ",
"                         ...+..++++++++++++++++++++++++++++++++++++..+...                       ",
"                          ..+...+++++++++++++++++++++++++++++++++++..+...                       ",
"                          ..++..+++++++++++++++++++++++++++++++++++......                       ",
"                          ..++..+++++++++++++++++++++++++++++++++++.....                        ",
"                          ..++..+++++++++++++++++++++++++++++++++++.....                        ",
"                          ..++..+++++++++++++++++++++++++++++++++++.....                        ",
"                          ...+..+++++++++++++++++++++++++++++++++++.....                        ",
"                           ..+..+++++++++++++++++++++++++++++++++++....                         ",
"                           .............++++++++++++++++++++++++++.....                         ",
"                           ............................................                         ",
"                            ....       ............................                             ",
"                                                                                                ",
"                                                                                                ",
"                                                                                                ",
"                                                                                                ",
"                                                                                                ",
"                                                                                                ",
"                                                                                                ",
"                                                                                                ",
"                                                                                                ",
"                                                                                                ",
"                                                                                                "};
