/* XPM */
static char * fill_xpm[] = {
"96 96 2 1",
" 	c #FFFFFF",
".	c #B2B2B2",
"                                                                                                ",
"                                                                                                ",
"                                                                                                ",
"                                                                                                ",
"                                                                                                ",
"                                                                                                ",
"                                                                                                ",
"           ....                                                                                 ",
"          .    .                                                                                ",
"         .      .                                                                               ",
"         .      .                                                                               ",
"        .       .                                                                               ",
"     .. .       ....                                                                            ",
"    .. ...      .   ..      ....                                                                ",
"   .     .......     .     ..  .                                                                ",
"   .     .      .    .    .     .                                                               ",
"   .     .       .   .    .     .                                                               ",
"   .     .       .   .    .... .                                                                ",
"   .     .       .  .    ...  ..                                                                ",
"   .     ..     ....    . .    .                                                                ",
"    ..   .........      .  .  ...                                                               ",
"      ....        .     .. ...  ..                        .                                     ",
"         .        .      ..  .   .                        .                                     ",
"        ..        .          ..  .                        ..                                    ",
"       .  ..   ...           . ...                        ..                                    ",
"       .    ....            .                            .  .                                   ",
"      .                                            ..    .  .                                   ",
"                                                   . .   .  .                                   ",
"                                                   .  . .   .                                   ",
"                                                   .  . .    .                                  ",
"                                         ........   .  ..    .    ..                            ",
"                                           ..    ....  .     .  ...                             ",
"                                             .     ...       . .  .                             ",
"                                              .     ..       ..  .                              ",
"                                               .                ..                              ",
"                                          ..   .                .                               ",
"                                          . .. .               .                                ",
"                                          .    .               .                                ",
"                                                                                                ",
"                                                                                                ",
"                                                                                                ",
"                                                                                                ",
"                                                                              .                 ",
"                                                                              ..                ",
"                                                                              . .               ",
"                         ..                                                   .  .              ",
"                        . .                                                   .  .              ",
"                        .  .                                                  .  .              ",
"                 ..     .  .                                                  .   .             ",
"                 . .    .  .                                             ...  .   .    ..       ",
"                 .  .   .  .     ...                                      . ...   .  .. ..      ",
"                  .  . .   .    . .                                       ..     .. .   .       ",
"              ..  .   ..   .  ..  .                                        .     ...   .        ",
"              . ...    .   ...   .                                               .    .         ",
"               .  ..             .                                                    .         ",
"                ..              .                                                               ",
"                  ..            .                                                               ",
"                                .                                                               ",
"                                                                                                ",
"                                                                                                ",
"                                                                                                ",
"                                                                                                ",
"                                                                                                ",
"                                                                                                ",
"                                                                                                ",
"                                                                                                ",
"                                                    ..       ..                                 ",
"                                                    . ..     ..                                 ",
"                                                    .   .    ..         .                       ",
"                                                     .   .   ..        .                        ",
"                                                     .    .  ..       ..                        ",
"                                                      .   .  . .    ...                         ",
"                                                      .    . . .   . .                          ",
"                                                       .   . . . .. .                           ",
"                                                       .    .. ..  .                            ",
"                                                        .   .. .   .                            ",
"                                               .....    .   ..    .                             ",
"                                                 .  ..  .         .                             ",
"                                                  .   ...         .                             ",
"                                                  .    ..        .                              ",
"                                                   .            ..                              ",
"                                                   .            .                               ",
"                                                                .                               ",
"                                                                                                ",
"                                                                                                ",
"                                                                                                ",
"                                                                                                ",
"                                                                                                ",
"                                                                                                ",
"                                                                                                ",
"                                                                                                ",
"                                                                                                ",
"                                                                                                ",
"                                                                                                ",
"                                                                                                ",
"                                                                                                "};
