/* XPM */
static char * jabol_xpm[] = {
"96 96 7 1",
" 	c None",
".	c #000000",
"+	c #AA6A40",
"@	c #F61E46",
"#	c #FFFFFF",
"$	c #008656",
"%	c #F3863C",
"                                                                                                ",
"                                                                                                ",
"                                                                                                ",
"                                                                                                ",
"                                                                                                ",
"                                                                                                ",
"                                                         .....                                  ",
"                                                        ......                                  ",
"                                                      .........                                 ",
"                                                     ...+++++..                                 ",
"                                                     ..++++++..                                 ",
"                                                     .+++++++.                                  ",
"                                                     ..++++++.                                  ",
"                                                     ..+++++..                                  ",
"                                                    ...........                                 ",
"                                                    ...........                                 ",
"                                                    ..     ....                                 ",
"                                                    ...    ...                                  ",
"                                                    ...    ...                                  ",
"                                                    ..     ..                                   ",
"                                                    ..     ..                                   ",
"                                                   ...     ..                                   ",
"                                                   ...     ..                                   ",
"                                                   ..     ...                                   ",
"                                                   ..     ..                                    ",
"                                                  ...     ..                                    ",
"                                                  ..      ..                                    ",
"                                                  ..@@@@@@..                                    ",
"                                                 ...@@@@@@..                                    ",
"                                              ......@@@@@@..                                    ",
"                                         .........@@@@@@@@...                                   ",
"                                      .........@@@@@@@@@@@.....                                 ",
"                                    ......@@@@@@@@@@@@@@@@@@....                                ",
"                                  .....@@@@@@@@@@@@@@@@@@@@@@@....                              ",
"                                  ...@@@@@@@@@@@@@@@@@@@@@@@@@@....                             ",
"                                ...@@@@@@@@@@@@@@@@@@@@@@@@@@@@@@..                             ",
"                                ...@@@@@@@@@@@@@@@@@@@@@@@@@@@@@@...                            ",
"                               ...@@@@@@@....................@@@@@...                           ",
"                              ....@@@....####################.....@...                          ",
"                              .......#############################....                          ",
"                             .....#################...##############...                         ",
"                             ...################......###############..                         ",
"                             ..#################.+++...##############..                         ",
"                             ..################..+++...##############..                         ",
"                            ...################..++.........#########..                         ",
"                            ..#################.+++....$$$$$.########...                        ",
"                            ..#################.+++...$$$$$$.#########..                        ",
"                            ..############......+++..$$$$$..##########..                        ",
"                            ..###########........++..$$...############..                        ",
"                            ..##########...@@@@..+..$.......##########..                        ",
"                            ..#########..@@@@@@@.....@@@@@...#########..                        ",
"                            ..########..@@####@@@..@@@@@@@@..#########..                        ",
"                           ...########.@@@####@@@@@@@@@@@@@..########...                        ",
"                           ..#########.@@@###@@@@@@@@@@@@@@@..#######..                         ",
"                           ..########..@@@@@@@@@@@@@@@@@@@@@..#######..                         ",
"                           ..########.@@@##@@@@@@@@@@@@@@@@@@..######..                         ",
"                           ..########.@@@@@@@@@@@@@@@@@@@@@@@..######...                        ",
"                           ..########.@%%@@@@@@@@@@@@@@@@@@@@..#######..                        ",
"                           ..########.%%%@@@@@@@@@@@@@@@@%@@@..#######..                        ",
"                           ..########.%%%@@@@@@@@@@@@%%@%%@@@..######...                        ",
"                           ..########.%%%@@@@@@@@@%%@%%%%%@%...######..                         ",
"                           ..########..%%%%%%@@%@@%%%%%%%%%%...######..                         ",
"                           ..########...%%%%%%@%%%%%%%%%%%%%..#######..                         ",
"                          ...#########..%%%%%%@%%%%%%%%%%%%...#######..                         ",
"                          ..##########...%%%%%%%%%%%%%%%%%%..########..                         ",
"                          ..###########....%%%%%%%%%%%%%%...#########..                         ",
"                          ..###########.....%%%%%%%%%%%....##########..                         ",
"                          ..##############......%%%.%.....###########..                         ",
"                          ..###############...........###############..                         ",
"                          ..###################....##################..                         ",
"                          ..#########################################..                         ",
"                          ..#########################################..                         ",
"                          ..#######################################....                         ",
"                          ..#####################################...@..                         ",
"                          .....###############################...@@@...                         ",
"                           ..@@.........################......@@@@@@..                          ",
"                           ..@@@@@@@@@@@................@@@@@@@@@@@@..                          ",
"                           ..@@@@@@@@@@@@@@@@@@@@@@@@@@@@@@@@@@@@@@@..                          ",
"                           ..@@@@@@@@@@@@@@@@@@@@@@@@@@@@@@@@@@@@@@@..                          ",
"                           ...@@@@@@@@@@@@@@@@@@@@@@@@@@@@@@@@@@@@@...                          ",
"                            ..@@@@@@@@@@@@@@@@@@@@@@@@@@@@@@@@@@@@@..                           ",
"                            ...@@@@@@@@@@@@@@@@@@@@@@@@@@@@@@@@@@@..                            ",
"                             ...........................@@@@@@@@...                             ",
"                              ....................................                              ",
"                                                       ..........                               ",
"                                                                                                ",
"                                                                                                ",
"                                                                                                ",
"                                                                                                ",
"                                                                                                ",
"                                                                                                ",
"                                                                                                ",
"                                                                                                ",
"                                                                                                ",
"                                                                                                ",
"                                                                                                "};
