/* XPM */
static char * zulek_xpm[] = {
"96 96 4 1",
" 	c 0",
".	c #000000",
"+	c #FFFFFF",
"@	c #FFA6DA",
"                                                                                                ",
"                                                                                                ",
"                                                                                                ",
"                                                                                                ",
"                                                                                                ",
"                                      .............                                             ",
"                               ...............................                                  ",
"                              ....+++++++++++++++++++++++++......                               ",
"                              ..+++++++++++++++++++++++++++++++....                             ",
"                             ..+++++++++++++++++++++++++++++++++.....                           ",
"                             ..+++++++++++++++++++++++++++++..+.++.....                         ",
"                            ..++++++++++++++++++++++++++++++++..++++....                        ",
"                            ..++++++++++++++++++++++++++++++++.+..+++...                        ",
"                           ...+++++++++++++++++++++++++++++++.++++++++...                       ",
"                           ..++++++++++++++++++++++++++++++++.+++++++++..                       ",
"                           ..++++++++++++++++++++++++++++++.....+++++++..                       ",
"                           .++++++++++++++++++++++++++++++.+.+++++++++++.                       ",
"                          ..++++++++++++++++++++++++++++++++.+++++++++++.                       ",
"                          ..++++++++++++++++++++++++++++++++.+++++++++++.                       ",
"                          ..++++++++++++++++++++++++++++++++.++++++++++..                       ",
"                          ..++++++++++++++++++++++++++++++++...++++++++.                        ",
"                          ..+++++++++++++++++++++++++++++....++++.++++..                        ",
"                          ..+++++++++++++++++++++++++++++++++.....++++..                        ",
"                          ..++++++++++++++++++++++++++++++++++++........                        ",
"                          ..+++++++++++++++++++++++++++++++++++..++++..                         ",
"                           ..++++++++++++++++++++++++++++++++++.++++...                         ",
"                           ..+++++++++++++++++++++++++++++++++++++++..                          ",
"                           ...+++++++++++++++++++++++++++++++++++++..                           ",
"                            ..++++++++++++++++++++++++++++++++++++...                           ",
"                            ...+++++++++++++++++++++++++++++++++++...                           ",
"                             ..+++++++++++++++++++++++++++++++++++..                            ",
"                             ..+++++++++++++++++++++++++++++++++++..                            ",
"                             .++++++++++++++++++++++++++++++++++++...                           ",
"                            ..+++++++++++++++++++++++++++++++++++....                           ",
"                            .+++++++++++++++++++++++++++++++++++.....                           ",
"                           ..+++++++++++++++....................++...                           ",
"                          ..+++++++++++++++.....++..............+++...                          ",
"                          .+++++++++++++++....++++++..+++.++++...++...                          ",
"                         ..+++++++++++++++...+++++++...+.++++++...+...                          ",
"                         .+++++++++++++++...++++++++...+.++++++...++...                         ",
"                        ..+++++++++++++++...++++++++...+.+++++....++...                         ",
"                        .++++++++++++++++...+++++++++..++...........+..                         ",
"                       ..++++++++++++++++..++++++++++..+.............+..                        ",
"                       ..+++++++++++++++...++++++++...++++++++@@@@@..+..                        ",
"                       ..+++++++++++++++..+..+++++...+++++++++@@@@@..+..                        ",
"                       .+++++++++++++++...+++......+++++++++++@@@@@..++.                        ",
"                      ..++++++++++++++...+++++++++++++...++++++.....++..                        ",
"                      ..++++++++++++++...++++++....................+++..                        ",
"                      ..+++++++++++++...+++++......................++...                        ",
"                      ..+++++++++++++..++++.............................                        ",
"                      ...+++++++++++...++++...........................                          ",
"                      ....++++++++.....+++.............................                         ",
"                      ......+++++.......++........++....................                        ",
"                        .................+.....+++++....................                        ",
"                            ..................++++++...............    ..                       ",
"                                  ...........+++++++........+++......                           ",
"                                  ...+......++++++++.....+++++........                          ",
"                                   ..++......++++++......++....    ...                          ",
"                                  ....+++...............+....                                   ",
"                                  ....++++++++............                                      ",
"                                 ...+++++++++++++..........                                     ",
"                                ...+++++++++++++++++.++.+..                                     ",
"                                ..++++++++++++++++++.+++.+..                                    ",
"                               ..++++++.++++++++++++.....+++.                                   ",
"                              ..+++++++.+++++++++++++...+++++.                                  ",
"                             ..++++++++.++.+++++++++++++.+++++.                                 ",
"                             .+++++++++......++++++++++++.++++.                                 ",
"                            .+++++++++..++.++.+++++++++++.+++++.                                ",
"                           ..+++++++++.++++++.+++++++++++.+++++.                                ",
"                           ..++++++++..+++++...++++++++++.++++++.                               ",
"                            ...+++++++..++++++.+++++++++++.++++++.                              ",
"                             ...........++.+.+.++++++++++..++++++.                              ",
"                             ......+++........+++++++++++..+++++.                               ",
"                             ..++++++++..+.+.+++++++++++...+++++.                               ",
"                              ..+++++++..+++++++++++++++..++++++.                               ",
"                                .......++++++++++++++++.........                                ",
"                                  ..++++++++++++++++.....++++...                                ",
"                                  .........+++++++++++.........                                 ",
"                                   ............................                                 ",
"                                   ..++++................++++.                                  ",
"                                  ...+..++++++++....+++++++++.                                  ",
"                                  ..++.+.++++++..  .++++++++++.                                 ",
"                                 ...+.++.+++++..    .+++++++++..                                ",
"                                 ..++....++.++.     ..++++++++..                                ",
"                                 ..+++++++.+...      ....+......                                ",
"                                   ......+..  ..       .........                                ",
"                                     ......            .++.                                     ",
"                                     ...++.........    .++.       ..                            ",
"                                    .........+++++.    ...........++.                           ",
"                                   ..++++++++++++++.   ..++++++.++++.                           ",
"                                   ..++++++++++++++.  ..++++++..++++.                           ",
"                                   ...++++++++++++.   ..++++........                            ",
"                                     .............     ............                             ",
"                                                                                                ",
"                                                                                                ",
"                                                                                                "};
